<svg xmlns="http://www.w3.org/2000/svg" xmlns:xlink="http://www.w3.org/1999/xlink" width="500" zoomAndPan="magnify" viewBox="0 0 375 374.999991" height="500" preserveAspectRatio="xMidYMid meet" version="1.0"><defs><g/><clipPath id="ed98650cc5"><path d="M 155 113 L 291 113 L 291 260 L 155 260 Z M 155 113 " clip-rule="nonzero"/></clipPath><clipPath id="7f25fced4a"><path d="M 108.191406 144.878906 L 258.058594 83.367188 L 307.609375 204.089844 L 157.742188 265.605469 Z M 108.191406 144.878906 " clip-rule="nonzero"/></clipPath><clipPath id="5bd5526a0e"><path d="M 108.191406 144.878906 L 258.058594 83.367188 L 307.609375 204.089844 L 157.742188 265.605469 Z M 108.191406 144.878906 " clip-rule="nonzero"/></clipPath><clipPath id="2b4ede12df"><path d="M 86 118 L 219 118 L 219 262 L 86 262 Z M 86 118 " clip-rule="nonzero"/></clipPath><clipPath id="21342eb54e"><path d="M 265.761719 230.984375 L 118.671875 291.359375 L 69.6875 172.019531 L 216.777344 111.644531 Z M 265.761719 230.984375 " clip-rule="nonzero"/></clipPath><clipPath id="d03ef84d4e"><path d="M 265.761719 230.984375 L 118.671875 291.359375 L 69.6875 172.019531 L 216.777344 111.644531 Z M 265.761719 230.984375 " clip-rule="nonzero"/></clipPath><clipPath id="7e6fe4c0a0"><path d="M 127.421875 157.90625 L 180.671875 157.90625 L 180.671875 202.15625 L 127.421875 202.15625 Z M 127.421875 157.90625 " clip-rule="nonzero"/></clipPath><clipPath id="ad7bbe5a1c"><path d="M 133.652344 163.105469 L 174.152344 163.105469 L 174.152344 196.855469 L 133.652344 196.855469 Z M 133.652344 163.105469 " clip-rule="nonzero"/></clipPath></defs><rect x="-37.5" width="450" fill="#ffffff" y="-37.499999" height="449.999989" fill-opacity="1"/><rect x="-37.5" width="450" fill="#ffffff" y="-37.499999" height="449.999989" fill-opacity="1"/><g clip-path="url(#ed98650cc5)"><g clip-path="url(#7f25fced4a)"><g clip-path="url(#5bd5526a0e)"><path fill="#000000" d="M 206.863281 245.214844 C 189.175781 252.476562 171.710938 257.207031 155.773438 259.464844 C 166.328125 256.898438 177.28125 253.351562 188.324219 248.816406 C 243.664062 226.101562 280.144531 187.257812 269.800781 162.050781 C 262.761719 144.90625 235.863281 138.496094 201.949219 143.296875 C 244.285156 132.964844 280.058594 138.277344 288.34375 158.457031 C 298.6875 183.65625 262.207031 222.5 206.863281 245.214844 Z M 169.105469 147.933594 L 168.953125 147.5625 C 191.046875 138.492188 191.179688 134.25 182.917969 114.128906 L 183.289062 113.976562 C 191.546875 134.097656 194.632812 137.023438 216.726562 127.953125 L 216.878906 128.324219 C 194.785156 137.390625 194.636719 141.628906 202.898438 161.75 L 202.527344 161.902344 C 194.269531 141.78125 191.199219 138.863281 169.105469 147.933594 " fill-opacity="1" fill-rule="evenodd"/></g></g></g><g clip-path="url(#2b4ede12df)"><g clip-path="url(#21342eb54e)"><g clip-path="url(#d03ef84d4e)"><path fill="#000000" d="M 168.488281 132.058594 C 185.925781 124.902344 203.144531 120.238281 218.855469 118.011719 C 208.453125 120.542969 197.652344 124.039062 186.765625 128.507812 C 132.207031 150.90625 96.238281 189.203125 106.441406 214.050781 C 113.375 230.953125 139.894531 237.273438 173.332031 232.542969 C 131.59375 242.730469 96.324219 237.492188 88.15625 217.59375 C 77.960938 192.753906 113.925781 154.457031 168.488281 132.058594 Z M 205.714844 227.972656 L 205.863281 228.335938 C 184.082031 237.277344 183.953125 241.460938 192.09375 261.296875 L 191.730469 261.445312 C 183.585938 241.609375 180.546875 238.726562 158.765625 247.667969 L 158.613281 247.304688 C 180.398438 238.363281 180.539062 234.1875 172.398438 214.347656 L 172.761719 214.199219 C 180.90625 234.035156 183.929688 236.914062 205.714844 227.972656 " fill-opacity="1" fill-rule="evenodd"/></g></g></g><path stroke-linecap="butt" transform="matrix(0.804014, 0, 0, 0.804014, 46.942732, 149.814965)" fill="none" stroke-linejoin="miter" d="M 43.59794 16.70509 C 44.972877 16.70509 46.041732 17.006313 46.809365 17.6039 C 47.572139 18.196629 47.955955 19.017705 47.955955 20.067126 C 47.955955 20.586979 47.883079 21.087398 47.737326 21.568383 L 46.274937 26.781483 C 46.022299 27.753169 45.589898 28.447925 44.992311 28.856034 C 44.389865 29.269001 43.602798 29.473055 42.640828 29.473055 C 41.708009 29.473055 40.95981 29.278718 40.396232 28.885185 C 39.84237 28.491651 39.429403 27.850338 39.167048 26.956386 L 38.263379 23.759536 C 38.117626 23.200817 37.933006 22.831576 37.704659 22.651813 C 37.48603 22.457476 37.01962 22.365166 36.310289 22.365166 L 30.718231 22.365166 L 27.569966 33.452113 L 28.638821 33.452113 C 29.158673 33.452113 29.615366 33.379236 30.004041 33.233483 C 30.397574 33.078013 30.8154 32.796224 31.262376 32.383257 L 33.001695 30.920868 C 33.63815 30.367007 34.206587 29.968615 34.707005 29.730552 C 35.217141 29.48763 35.751569 29.361311 36.310289 29.361311 C 37.01962 29.361311 37.607491 29.570224 38.0739 29.978332 C 38.535452 30.386441 38.768656 30.969453 38.768656 31.712793 C 38.768656 32.014016 38.715214 32.368682 38.60347 32.781649 L 36.145102 41.283909 C 35.581524 43.115538 34.570969 44.033782 33.123156 44.033782 C 31.927981 44.033782 30.995162 43.416761 30.319839 42.187577 L 29.309285 40.273354 C 29.042071 39.753502 28.799149 39.423128 28.570803 39.277375 C 28.352173 39.121905 28.016941 39.04417 27.569966 39.04417 L 25.947248 39.04417 L 23.595766 47.395819 C 23.52289 47.614448 23.484022 47.910813 23.484022 48.284912 C 23.484022 48.814482 23.600625 49.246882 23.838688 49.582114 C 24.086468 49.912488 24.455709 50.262295 24.946411 50.636395 C 25.359378 50.971626 25.636309 51.248557 25.782062 51.45747 C 25.927815 51.656666 26.000691 51.909304 26.000691 52.210527 C 26.000691 52.88585 25.699468 53.352259 25.097022 53.619473 C 24.504294 53.872112 23.629775 53.998431 22.473468 53.998431 L 8.418018 53.998431 C 7.451189 53.998431 6.727283 53.823527 6.246298 53.468862 C 5.750737 53.109338 5.585551 52.618636 5.736162 51.991898 C 5.809039 51.651807 5.954792 51.384593 6.163704 51.185398 C 6.3629 50.971626 6.668981 50.738422 7.07709 50.471208 C 7.718403 50.097108 8.22368 49.708434 8.59778 49.295467 C 8.967021 48.887358 9.263385 48.250903 9.482015 47.395819 L 16.376133 23.254259 C 16.521886 22.768416 16.594763 22.32144 16.594763 21.913331 C 16.594763 21.466355 16.531603 21.092256 16.400425 20.791033 C 16.274106 20.48981 16.079769 20.169154 15.812555 19.833922 C 15.477323 19.352937 15.307278 18.959403 15.307278 18.658181 C 15.307278 18.546437 15.346145 18.342382 15.419022 18.041159 C 15.574491 17.560174 15.909723 17.220084 16.429576 17.01603 C 16.949428 16.807117 17.717061 16.70509 18.727615 16.70509 Z M 85.190995 28.078684 C 84.603125 30.240688 83.480826 31.926564 81.828959 33.136314 C 80.191667 34.350923 78.121974 35.10398 75.624738 35.405203 C 77.417501 35.560673 78.763287 36.085384 79.657239 36.979336 C 80.551191 37.873288 80.998167 39.049029 80.998167 40.506559 C 80.998167 41.060421 80.905856 41.750318 80.721236 42.571394 L 80.109073 45.316409 C 80.02648 45.690508 79.982754 45.952864 79.982754 46.098617 C 79.982754 46.589319 80.099356 46.95856 80.327703 47.20634 C 80.556049 47.444403 80.871847 47.561006 81.284814 47.561006 C 82.067022 47.561006 82.6306 47.67275 82.980408 47.901096 C 83.335073 48.119726 83.456534 48.532693 83.349649 49.135138 C 83.203896 49.990223 82.75692 50.825873 82.008721 51.646949 C 81.260522 52.468024 80.201383 53.153063 78.836163 53.697208 C 77.475802 54.236494 75.828793 54.503708 73.885419 54.503708 C 71.427051 54.503708 69.464244 53.954705 68.006713 52.851841 C 66.549183 51.748976 65.820418 50.169985 65.820418 48.119726 C 65.820418 47.337518 65.932162 46.497009 66.160508 45.603057 L 67.049602 42.007815 C 67.205072 41.52683 67.282807 41.026412 67.282807 40.506559 C 67.282807 39.651475 66.991301 39.034454 66.408289 38.660354 C 65.834993 38.286255 64.907032 38.101634 63.634123 38.101634 L 61.515845 38.101634 L 58.931158 47.395819 C 58.858282 47.614448 58.819414 47.891379 58.819414 48.23147 C 58.819414 48.751322 58.945734 49.198298 59.203231 49.572397 C 59.465586 49.941638 59.82511 50.335172 60.281803 50.748139 C 60.612177 51.010494 60.864815 51.267991 61.049436 51.510913 C 61.238915 51.748976 61.336083 52.001615 61.336083 52.26397 C 61.336083 52.900425 61.03486 53.352259 60.432415 53.619473 C 59.839686 53.872112 58.965167 53.998431 57.80886 53.998431 L 43.75341 53.998431 C 42.786581 53.998431 42.062675 53.823527 41.58169 53.468862 C 41.086129 53.109338 40.920943 52.618636 41.076413 51.991898 C 41.149289 51.651807 41.290184 51.384593 41.499096 51.185398 C 41.698292 50.971626 42.004374 50.738422 42.412482 50.471208 C 43.053795 50.097108 43.559073 49.708434 43.933172 49.295467 C 44.307271 48.887358 44.603636 48.250903 44.822265 47.395819 L 51.658082 23.254259 C 51.803835 22.768416 51.876712 22.302006 51.876712 21.85503 C 51.876712 21.446922 51.813552 21.101973 51.682375 20.820184 C 51.556055 20.533536 51.376293 20.208021 51.152805 19.833922 C 50.812715 19.352937 50.64267 18.959403 50.64267 18.658181 C 50.64267 18.546437 50.681537 18.342382 50.754414 18.041159 C 50.909883 17.560174 51.235399 17.220084 51.740676 17.01603 C 52.241094 16.807117 53.013586 16.70509 54.063007 16.70509 L 72.821422 16.70509 C 75.40125 16.70509 77.650705 17.093765 79.574645 17.880831 C 81.498585 18.663039 82.970691 19.736753 83.990962 21.106831 C 85.02095 22.462335 85.535944 24.002458 85.535944 25.727202 C 85.535944 26.50941 85.419342 27.296477 85.190995 28.078684 Z M 70.863473 27.519965 C 71.048093 26.650305 71.140404 25.994416 71.140404 25.54744 C 71.140404 23.570058 70.056973 22.583795 67.899828 22.583795 L 65.548346 22.583795 L 63.070544 32.495001 L 65.422026 32.495001 C 66.884415 32.495001 68.031006 32.140335 68.871515 31.426146 C 69.716882 30.716814 70.382488 29.414754 70.863473 27.519965 Z M 119.136875 47.395819 C 118.986264 47.881662 118.908529 48.362647 118.908529 48.843632 C 118.908529 49.256599 118.961972 49.601548 119.068857 49.883337 C 119.190318 50.165126 119.311779 50.393473 119.438098 50.568376 C 119.574134 50.733563 119.661586 50.850166 119.700454 50.923042 C 120.074553 51.297142 120.259174 51.671241 120.259174 52.04534 C 120.259174 52.118217 120.220306 52.302837 120.137713 52.60406 C 119.99196 53.123913 119.661586 53.488295 119.151451 53.697208 C 118.651032 53.901262 117.883399 53.998431 116.843694 53.998431 L 103.565594 53.998431 C 102.783386 53.998431 102.176081 53.872112 101.748539 53.619473 C 101.320997 53.352259 101.107226 52.997594 101.107226 52.550618 C 101.107226 52.322271 101.160669 52.074491 101.267554 51.812136 C 101.379298 51.510913 101.534768 51.277708 101.733964 51.11738 C 101.942877 50.952193 102.234383 50.752997 102.608482 50.529509 C 103.210928 50.189419 103.696771 49.815319 104.070871 49.407211 C 104.44497 48.994244 104.760768 48.32378 105.013407 47.395819 L 106.480654 42.571394 L 97.740331 42.571394 L 96.224499 45.768243 C 95.597761 47.148039 95.281963 48.226611 95.281963 49.008819 C 95.281963 49.465512 95.35484 49.834753 95.500593 50.116542 C 95.656063 50.388614 95.879551 50.68012 96.171057 50.976485 C 96.433412 51.277708 96.613174 51.535205 96.705484 51.744118 C 96.792936 51.943313 96.802653 52.215386 96.729777 52.550618 C 96.584024 53.104479 96.273084 53.488295 95.801816 53.697208 C 95.335406 53.901262 94.601782 53.998431 93.600945 53.998431 L 85.259013 53.998431 C 84.394212 53.998431 83.738323 53.838103 83.291348 53.522304 C 82.844372 53.201648 82.620884 52.783822 82.620884 52.26397 C 82.620884 51.661524 82.834655 51.190256 83.262197 50.840449 C 83.694598 50.485783 84.335911 50.101967 85.190995 49.693858 C 86.313294 49.13028 87.212104 48.576418 87.882568 48.037132 C 88.55789 47.492988 89.136044 46.735072 89.621887 45.768243 L 99.586536 25.095606 C 101.116943 21.889039 102.919422 19.571566 104.989115 18.138328 C 107.068525 16.700232 109.798965 15.976325 113.190152 15.976325 C 116.999164 15.976325 119.948234 16.753674 122.03736 18.303515 C 124.131346 19.853355 125.180767 22.005642 125.180767 24.770091 C 125.180767 25.926398 124.996147 27.121573 124.622047 28.350757 Z M 108.161672 36.979336 L 111.125317 27.121573 C 111.27107 26.674597 111.343947 26.208187 111.343947 25.727202 C 111.343947 25.017871 111.149609 24.483443 110.756076 24.128777 C 110.367401 23.769253 109.81354 23.59435 109.104209 23.59435 C 108.210257 23.59435 107.442624 23.856705 106.806169 24.386274 C 106.179431 24.906127 105.542976 25.834088 104.906521 27.175016 L 100.310443 36.979336 Z M 167.633766 16.70509 C 169.164172 16.70509 169.931805 17.190933 169.931805 18.167479 C 169.931805 18.420117 169.912371 18.609596 169.873504 18.726199 C 169.756901 19.090581 169.581998 19.377229 169.353651 19.586141 C 169.135022 19.799913 168.824082 20.028259 168.411115 20.285756 C 167.857254 20.620988 167.390844 20.995087 167.016744 21.408054 C 166.642645 21.816163 166.326847 22.447759 166.059633 23.307702 L 159.11693 48.178027 C 158.485334 50.417765 157.693409 51.987039 156.736298 52.880991 C 155.788903 53.770085 154.472267 54.217061 152.786391 54.217061 C 151.29971 54.217061 150.060809 53.779801 149.06483 52.905283 C 148.073709 52.030765 147.145748 50.68012 146.290664 48.843632 L 137.841847 31.047188 L 133.138883 47.395819 C 133.02228 47.881662 132.959121 48.309205 132.959121 48.683304 C 132.959121 49.164289 133.041714 49.567539 133.206901 49.883337 C 133.381804 50.203994 133.619868 50.529509 133.916232 50.869599 C 134.329199 51.350584 134.533253 51.763551 134.533253 52.098783 C 134.533253 52.317413 134.51382 52.487458 134.47981 52.60406 C 134.334057 53.123913 133.993967 53.488295 133.469256 53.697208 C 132.949404 53.901262 132.162337 53.998431 131.117774 53.998431 L 125.015581 53.998431 C 123.485174 53.998431 122.7224 53.517446 122.7224 52.550618 C 122.7224 52.288262 122.736975 52.098783 122.775842 51.991898 C 122.882728 51.617798 123.052773 51.331151 123.28112 51.127096 C 123.499749 50.918184 123.815547 50.68012 124.223656 50.417765 C 124.792093 50.082533 125.258502 49.708434 125.632602 49.295467 C 126.006701 48.887358 126.322499 48.250903 126.575138 47.395819 L 133.697603 22.253422 L 132.798792 20.392642 C 132.424693 19.649301 132.235214 18.993412 132.235214 18.439551 C 132.235214 17.283244 132.983413 16.70509 134.47981 16.70509 L 142.763441 16.70509 C 143.958616 16.70509 144.862284 16.977162 145.469589 17.521307 C 146.091468 18.060593 146.757074 19.017705 147.466405 20.392642 L 155.64315 36.814149 L 159.510464 23.307702 C 159.622208 22.78785 159.67565 22.360307 159.67565 22.020217 C 159.67565 21.539232 159.588199 21.135982 159.418153 20.820184 C 159.252967 20.499527 159.02462 20.169154 158.733114 19.833922 C 158.315289 19.352937 158.101518 18.93997 158.101518 18.604738 C 158.101518 18.386108 158.12581 18.216063 158.174394 18.099461 C 158.320147 17.579608 158.650521 17.220084 159.170373 17.01603 C 159.699942 16.807117 160.48215 16.70509 161.521855 16.70509 Z M 184.201026 54.34338 C 181.067336 54.34338 178.244586 53.765226 175.737634 52.60406 C 173.240399 51.447753 171.253299 49.737584 169.776335 47.478412 C 168.309088 45.21924 167.575464 42.483942 167.575464 39.277375 C 167.575464 37.032779 167.968998 34.603562 168.751205 31.989724 C 170.466233 26.392808 173.055778 22.355449 176.529559 19.872789 C 180.003339 17.385271 183.715183 16.141512 187.674807 16.141512 C 189.807659 16.141512 191.692732 16.462168 193.334883 17.098623 C 194.972175 17.73022 196.488006 18.638747 197.87266 19.833922 L 199.373916 18.658181 C 200.389329 17.875973 201.239555 17.336686 201.934311 17.04518 C 202.624209 16.743957 203.401558 16.593346 204.256643 16.593346 C 205.184604 16.593346 205.927944 16.7974 206.486664 17.210367 C 207.050242 17.618476 207.332032 18.216063 207.332032 18.998271 C 207.332032 19.411238 207.259155 19.819346 207.113402 20.232313 L 203.969995 28.967778 C 203.634763 29.978332 203.231513 30.687664 202.765103 31.100631 C 202.303552 31.508739 201.603938 31.712793 200.675977 31.712793 C 199.699431 31.712793 198.902648 31.367844 198.280769 30.677947 C 197.673464 29.983191 196.97385 28.797733 196.191642 27.121573 C 195.29769 25.36282 194.568925 24.206512 194.005347 23.647792 C 193.446627 23.093931 192.625551 22.812142 191.54212 22.812142 C 190.011714 22.812142 188.53475 23.759536 187.111228 25.644609 C 185.702282 27.519965 184.414797 30.347573 183.25849 34.122577 C 182.281945 37.295134 181.796101 39.942981 181.796101 42.075833 C 181.796101 43.936614 182.150767 45.326126 182.860098 46.249228 C 183.56943 47.157756 184.521683 47.614448 185.716858 47.614448 C 187.475611 47.614448 188.923424 47.220915 190.050581 46.438707 C 191.192313 45.656499 192.358337 44.592502 193.553512 43.251575 C 194.301711 42.425641 194.904157 41.813478 195.370567 41.419945 C 195.846693 41.03127 196.342253 40.832074 196.862106 40.832074 C 197.537428 40.832074 198.24676 41.172165 198.994958 41.847487 C 199.743157 42.517951 200.097823 43.193273 200.058956 43.868596 C 200.097823 44.689671 199.432218 45.962581 198.062139 47.682467 C 196.706636 49.397494 194.816705 50.937617 192.402063 52.302837 C 189.997138 53.663199 187.26184 54.34338 184.201026 54.34338 Z M 228.339901 16.70509 C 229.122109 16.70509 229.729413 16.826551 230.156956 17.074331 C 230.584498 17.307536 230.798269 17.652485 230.798269 18.099461 C 230.798269 18.28894 230.744826 18.53672 230.637941 18.837943 C 230.51648 19.090581 230.351293 19.323786 230.14238 19.532699 C 229.943184 19.731894 229.758564 19.882506 229.58366 19.984533 C 229.418474 20.076843 229.301871 20.159437 229.228995 20.232313 C 228.636266 20.567545 228.150422 20.941645 227.776323 21.349753 C 227.407082 21.76272 227.086425 22.394316 226.82407 23.254259 L 220.041695 47.395819 C 219.895942 47.881662 219.823066 48.343214 219.823066 48.79019 C 219.823066 49.237165 219.886226 49.611265 220.012545 49.912488 C 220.148581 50.213711 220.347777 50.529509 220.600415 50.869599 C 220.940506 51.350584 221.105693 51.744118 221.105693 52.04534 C 221.105693 52.118217 221.071684 52.302837 220.998807 52.60406 C 220.853054 53.123913 220.512964 53.488295 219.983394 53.697208 C 219.4684 53.901262 218.681334 53.998431 217.631912 53.998431 L 204.480131 53.998431 C 203.697923 53.998431 203.090618 53.872112 202.663076 53.619473 C 202.235534 53.352259 202.021763 52.997594 202.021763 52.550618 C 202.021763 52.322271 202.075206 52.074491 202.18695 51.812136 C 202.332703 51.404027 202.570766 51.088229 202.910856 50.869599 C 203.246088 50.641253 203.450143 50.510075 203.523019 50.471208 C 204.125465 50.097108 204.616167 49.71815 204.985408 49.324617 C 205.359507 48.931084 205.675305 48.289771 205.932803 47.395819 L 212.768619 23.254259 C 212.914372 22.768416 212.987249 22.302006 212.987249 21.85503 C 212.987249 21.446922 212.924089 21.101973 212.792912 20.820184 C 212.666592 20.533536 212.48683 20.208021 212.263342 19.833922 C 211.923252 19.352937 211.753207 18.959403 211.753207 18.658181 C 211.753207 18.546437 211.792074 18.342382 211.864951 18.041159 C 212.020421 17.560174 212.345936 17.220084 212.851213 17.01603 C 213.351632 16.807117 214.124123 16.70509 215.173544 16.70509 Z M 247.040014 16.360141 C 249.124283 16.360141 251.053081 16.617638 252.821551 17.127774 C 254.599738 17.628192 256.407076 18.420117 258.238705 19.503548 L 259.521332 18.439551 C 260.425001 17.73022 261.163483 17.244376 261.736778 16.991738 C 262.31979 16.724524 262.985396 16.593346 263.733594 16.593346 C 264.627546 16.593346 265.332019 16.787683 265.851872 17.181217 C 266.371724 17.57475 266.629221 18.143186 266.629221 18.891385 C 266.629221 19.192608 266.575778 19.503548 266.468893 19.833922 L 264.117411 27.573407 C 263.859914 28.467359 263.534399 29.098956 263.131149 29.473055 C 262.737615 29.847155 262.149745 30.031775 261.367537 30.031775 C 260.546462 30.031775 259.827413 29.783995 259.205534 29.283576 C 258.598229 28.768582 257.641118 27.733736 256.334199 26.164461 C 255.022422 24.668064 253.832105 23.618642 252.768108 23.006479 C 251.70897 22.3846 250.62068 22.078518 249.498382 22.078518 C 248.682165 22.078518 247.987409 22.350591 247.423831 22.894735 C 246.865111 23.434021 246.58818 24.094768 246.58818 24.876976 C 246.58818 25.770928 247.035156 26.60172 247.929108 27.369353 C 248.832777 28.132127 250.232006 29.094097 252.14137 30.250405 C 254.079886 31.41157 255.683169 32.456134 256.95122 33.39867 C 258.219272 34.326631 259.297844 35.482938 260.191796 36.867592 C 261.095465 38.247387 261.547299 39.831237 261.547299 41.628857 C 261.547299 42.785165 261.35782 43.941472 260.983721 45.09778 C 260.080052 48.080858 258.340732 50.344888 255.760904 51.894729 C 253.190792 53.44457 250.18828 54.217061 246.753367 54.217061 C 244.183255 54.217061 242.016393 53.920696 240.25764 53.327967 C 238.508604 52.73038 236.715842 51.719825 234.884212 50.310879 L 232.877679 51.991898 C 231.935142 52.774106 231.16751 53.308533 230.565064 53.590323 C 229.972335 53.862395 229.301871 53.998431 228.553672 53.998431 C 227.698588 53.998431 227.013549 53.794377 226.503413 53.386268 C 226.002994 52.973301 225.750356 52.414581 225.750356 51.70525 C 225.750356 51.331151 225.828091 50.937617 225.983561 50.529509 L 228.733434 42.187577 C 229.02494 41.211032 229.42819 40.521134 229.948043 40.108168 C 230.477612 39.700059 231.152935 39.496005 231.97401 39.496005 C 232.829094 39.496005 233.606444 39.797228 234.296341 40.394815 C 234.991098 40.987544 235.894766 42.070975 237.017065 43.635391 C 238.212239 45.360135 239.319962 46.560168 240.340234 47.230632 C 241.370222 47.896238 242.594547 48.23147 244.018068 48.23147 C 245.018906 48.23147 245.791397 48.071141 246.330683 47.750485 C 246.874828 47.434686 247.263502 46.924551 247.491849 46.220078 C 247.564725 46.030599 247.598734 45.74881 247.598734 45.37471 C 247.598734 44.480758 247.166334 43.659683 246.301532 42.911484 C 245.446448 42.163285 244.124954 41.269333 242.33705 40.219912 C 240.432544 39.063604 238.882703 38.028758 237.687529 37.115372 C 236.492354 36.201986 235.452649 35.060254 234.568414 33.685318 C 233.693896 32.295805 233.256637 30.673088 233.256637 28.802591 C 233.256637 27.490814 233.465549 26.19847 233.873658 24.935278 C 234.655866 22.365166 236.259149 20.295473 238.683508 18.726199 C 241.117583 17.152066 243.906324 16.360141 247.040014 16.360141 Z M 284.158452 54.34338 C 281.024762 54.34338 278.202012 53.765226 275.699918 52.60406 C 273.197824 51.447753 271.215583 49.737584 269.738619 47.478412 C 268.271372 45.21924 267.537748 42.483942 267.537748 39.277375 C 267.537748 37.032779 267.926423 34.603562 268.713489 31.989724 C 270.423658 26.392808 273.018062 22.355449 276.491843 19.872789 C 279.965623 17.385271 283.677467 16.141512 287.632232 16.141512 C 289.765085 16.141512 291.655016 16.462168 293.292308 17.098623 C 294.934459 17.73022 296.445432 18.638747 297.830086 19.833922 L 299.3362 18.658181 C 300.346755 17.875973 301.201839 17.336686 301.891737 17.04518 C 302.586493 16.743957 303.358984 16.593346 304.218927 16.593346 C 305.146888 16.593346 305.890228 16.7974 306.44409 17.210367 C 307.012526 17.618476 307.294316 18.216063 307.294316 18.998271 C 307.294316 19.411238 307.221439 19.819346 307.075686 20.232313 L 303.932279 28.967778 C 303.592189 29.978332 303.193797 30.687664 302.727387 31.100631 C 302.260978 31.508739 301.566222 31.712793 300.633402 31.712793 C 299.661715 31.712793 298.860074 31.367844 298.243053 30.677947 C 297.63089 29.983191 296.936134 28.797733 296.149068 27.121573 C 295.255116 25.36282 294.52635 24.206512 293.962772 23.647792 C 293.408911 23.093931 292.587835 22.812142 291.504404 22.812142 C 289.969139 22.812142 288.492175 23.759536 287.073512 25.644609 C 285.659708 27.519965 284.377081 30.347573 283.215916 34.122577 C 282.244229 37.295134 281.753527 39.942981 281.753527 42.075833 C 281.753527 43.936614 282.108193 45.326126 282.822382 46.249228 C 283.531714 47.157756 284.483967 47.614448 285.679142 47.614448 C 287.437895 47.614448 288.88085 47.220915 290.012865 46.438707 C 291.149739 45.656499 292.315763 44.592502 293.510938 43.251575 C 294.259137 42.425641 294.866441 41.813478 295.332851 41.419945 C 295.804119 41.03127 296.299679 40.832074 296.819531 40.832074 C 297.494854 40.832074 298.204185 41.172165 298.952384 41.847487 C 299.700583 42.517951 300.055249 43.193273 300.02124 43.868596 C 300.055249 44.689671 299.389643 45.962581 298.024423 47.682467 C 296.664062 49.397494 294.778989 50.937617 292.364347 52.302837 C 289.959422 53.663199 287.224124 54.34338 284.158452 54.34338 Z M 337.649813 47.395819 C 337.494343 47.881662 337.416608 48.362647 337.416608 48.843632 C 337.416608 49.256599 337.474909 49.601548 337.581795 49.883337 C 337.703255 50.165126 337.824716 50.393473 337.951036 50.568376 C 338.087072 50.733563 338.174523 50.850166 338.213391 50.923042 C 338.582632 51.297142 338.772111 51.671241 338.772111 52.04534 C 338.772111 52.118217 338.733243 52.302837 338.65065 52.60406 C 338.504897 53.123913 338.174523 53.488295 337.664388 53.697208 C 337.163969 53.901262 336.391478 53.998431 335.351773 53.998431 L 322.078531 53.998431 C 321.296323 53.998431 320.689019 53.872112 320.261477 53.619473 C 319.833934 53.352259 319.615305 52.997594 319.615305 52.550618 C 319.615305 52.322271 319.673606 52.074491 319.780492 51.812136 C 319.892236 51.510913 320.047705 51.277708 320.246901 51.11738 C 320.455814 50.952193 320.74732 50.752997 321.121419 50.529509 C 321.723865 50.189419 322.209709 49.815319 322.583808 49.407211 C 322.957908 48.994244 323.273706 48.32378 323.526344 47.395819 L 324.988733 42.571394 L 316.253268 42.571394 L 314.737437 45.768243 C 314.10584 47.148039 313.794901 48.226611 313.794901 49.008819 C 313.794901 49.465512 313.867777 49.834753 314.01353 50.116542 C 314.169 50.388614 314.392488 50.68012 314.683994 50.976485 C 314.946349 51.277708 315.126112 51.535205 315.213563 51.744118 C 315.305874 51.943313 315.31559 52.215386 315.242714 52.550618 C 315.096961 53.104479 314.786021 53.488295 314.314753 53.697208 C 313.848343 53.901262 313.11472 53.998431 312.113882 53.998431 L 303.771951 53.998431 C 302.90715 53.998431 302.251261 53.838103 301.804285 53.522304 C 301.357309 53.201648 301.133821 52.783822 301.133821 52.26397 C 301.133821 51.661524 301.347592 51.190256 301.775134 50.840449 C 302.202677 50.485783 302.848848 50.101967 303.703933 49.693858 C 304.826231 49.13028 305.720183 48.576418 306.395505 48.037132 C 307.070828 47.492988 307.648981 46.735072 308.134825 45.768243 L 318.099473 25.095606 C 319.62988 21.889039 321.432359 19.571566 323.502052 18.138328 C 325.576604 16.700232 328.311902 15.976325 331.703089 15.976325 C 335.512102 15.976325 338.461171 16.753674 340.550298 18.303515 C 342.644283 19.853355 343.693705 22.005642 343.693705 24.770091 C 343.693705 25.926398 343.509084 27.121573 343.134985 28.350757 Z M 326.67461 36.979336 L 329.638255 27.121573 C 329.784008 26.674597 329.856884 26.208187 329.856884 25.727202 C 329.856884 25.017871 329.662547 24.483443 329.269014 24.128777 C 328.880339 23.769253 328.326477 23.59435 327.617146 23.59435 C 326.723194 23.59435 325.955561 23.856705 325.319107 24.386274 C 324.68751 24.906127 324.055914 25.834088 323.419459 27.175016 L 318.82338 36.979336 Z M 326.67461 36.979336 " stroke="#ffffff" stroke-width="4.83" stroke-opacity="1" stroke-miterlimit="4"/><g fill="#000000" fill-opacity="1"><g transform="translate(52.633645, 193.23173)"><g><path d="M 29.359375 -29.984375 C 30.472656 -29.984375 31.335938 -29.742188 31.953125 -29.265625 C 32.566406 -28.785156 32.875 -28.125 32.875 -27.28125 C 32.875 -26.863281 32.8125 -26.460938 32.6875 -26.078125 L 31.515625 -21.890625 C 31.304688 -21.109375 30.960938 -20.550781 30.484375 -20.21875 C 30.003906 -19.882812 29.375 -19.71875 28.59375 -19.71875 C 27.84375 -19.71875 27.242188 -19.875 26.796875 -20.1875 C 26.347656 -20.507812 26.015625 -21.03125 25.796875 -21.75 L 25.078125 -24.3125 C 24.960938 -24.769531 24.8125 -25.070312 24.625 -25.21875 C 24.445312 -25.363281 24.070312 -25.4375 23.5 -25.4375 L 19 -25.4375 L 16.484375 -16.53125 L 17.34375 -16.53125 C 17.757812 -16.53125 18.125 -16.585938 18.4375 -16.703125 C 18.75 -16.828125 19.085938 -17.050781 19.453125 -17.375 L 20.84375 -18.546875 C 21.351562 -19.003906 21.8125 -19.328125 22.21875 -19.515625 C 22.625 -19.710938 23.050781 -19.8125 23.5 -19.8125 C 24.070312 -19.8125 24.546875 -19.644531 24.921875 -19.3125 C 25.296875 -18.988281 25.484375 -18.523438 25.484375 -17.921875 C 25.484375 -17.679688 25.441406 -17.394531 25.359375 -17.0625 L 23.375 -10.21875 C 22.925781 -8.75 22.113281 -8.015625 20.9375 -8.015625 C 19.976562 -8.015625 19.226562 -8.507812 18.6875 -9.5 L 17.875 -11.03125 C 17.664062 -11.445312 17.46875 -11.710938 17.28125 -11.828125 C 17.101562 -11.953125 16.835938 -12.015625 16.484375 -12.015625 L 15.171875 -12.015625 L 13.28125 -5.3125 C 13.21875 -5.132812 13.1875 -4.894531 13.1875 -4.59375 C 13.1875 -4.175781 13.285156 -3.832031 13.484375 -3.5625 C 13.679688 -3.289062 13.972656 -3.003906 14.359375 -2.703125 C 14.691406 -2.429688 14.914062 -2.210938 15.03125 -2.046875 C 15.15625 -1.878906 15.21875 -1.675781 15.21875 -1.4375 C 15.21875 -0.894531 14.976562 -0.519531 14.5 -0.3125 C 14.019531 -0.101562 13.316406 0 12.390625 0 L 1.078125 0 C 0.296875 0 -0.285156 -0.140625 -0.671875 -0.421875 C -1.066406 -0.710938 -1.203125 -1.113281 -1.078125 -1.625 C -1.015625 -1.894531 -0.898438 -2.109375 -0.734375 -2.265625 C -0.578125 -2.429688 -0.332031 -2.625 0 -2.84375 C 0.507812 -3.132812 0.914062 -3.445312 1.21875 -3.78125 C 1.519531 -4.113281 1.757812 -4.625 1.9375 -5.3125 L 7.46875 -24.71875 C 7.59375 -25.113281 7.65625 -25.472656 7.65625 -25.796875 C 7.65625 -26.160156 7.601562 -26.460938 7.5 -26.703125 C 7.394531 -26.941406 7.238281 -27.195312 7.03125 -27.46875 C 6.757812 -27.851562 6.625 -28.171875 6.625 -28.421875 C 6.625 -28.503906 6.648438 -28.664062 6.703125 -28.90625 C 6.828125 -29.300781 7.097656 -29.578125 7.515625 -29.734375 C 7.941406 -29.898438 8.554688 -29.984375 9.359375 -29.984375 Z M 29.359375 -29.984375 "/></g></g></g><g fill="#000000" fill-opacity="1"><g transform="translate(81.044289, 193.23173)"><g><path d="M 34.40625 -20.84375 C 33.925781 -19.101562 33.023438 -17.742188 31.703125 -16.765625 C 30.378906 -15.796875 28.710938 -15.191406 26.703125 -14.953125 C 28.140625 -14.828125 29.21875 -14.40625 29.9375 -13.6875 C 30.664062 -12.96875 31.03125 -12.023438 31.03125 -10.859375 C 31.03125 -10.398438 30.953125 -9.84375 30.796875 -9.1875 L 30.3125 -6.984375 C 30.25 -6.679688 30.21875 -6.46875 30.21875 -6.34375 C 30.21875 -5.957031 30.304688 -5.664062 30.484375 -5.46875 C 30.660156 -5.269531 30.914062 -5.171875 31.25 -5.171875 C 31.882812 -5.171875 32.34375 -5.082031 32.625 -4.90625 C 32.90625 -4.726562 33.003906 -4.398438 32.921875 -3.921875 C 32.796875 -3.222656 32.429688 -2.546875 31.828125 -1.890625 C 31.234375 -1.234375 30.390625 -0.6875 29.296875 -0.25 C 28.203125 0.1875 26.875 0.40625 25.3125 0.40625 C 23.320312 0.40625 21.742188 -0.0351562 20.578125 -0.921875 C 19.410156 -1.804688 18.828125 -3.078125 18.828125 -4.734375 C 18.828125 -5.359375 18.914062 -6.03125 19.09375 -6.75 L 19.8125 -9.640625 C 19.9375 -10.023438 20 -10.429688 20 -10.859375 C 20 -11.546875 19.765625 -12.035156 19.296875 -12.328125 C 18.828125 -12.628906 18.082031 -12.78125 17.0625 -12.78125 L 15.359375 -12.78125 L 13.28125 -5.3125 C 13.21875 -5.132812 13.1875 -4.910156 13.1875 -4.640625 C 13.1875 -4.210938 13.289062 -3.847656 13.5 -3.546875 C 13.71875 -3.253906 14.003906 -2.941406 14.359375 -2.609375 C 14.628906 -2.398438 14.835938 -2.195312 14.984375 -2 C 15.140625 -1.8125 15.21875 -1.609375 15.21875 -1.390625 C 15.21875 -0.878906 14.976562 -0.519531 14.5 -0.3125 C 14.019531 -0.101562 13.316406 0 12.390625 0 L 1.078125 0 C 0.296875 0 -0.285156 -0.140625 -0.671875 -0.421875 C -1.066406 -0.710938 -1.203125 -1.113281 -1.078125 -1.625 C -1.015625 -1.894531 -0.898438 -2.109375 -0.734375 -2.265625 C -0.578125 -2.429688 -0.332031 -2.625 0 -2.84375 C 0.507812 -3.132812 0.914062 -3.445312 1.21875 -3.78125 C 1.519531 -4.113281 1.757812 -4.625 1.9375 -5.3125 L 7.4375 -24.71875 C 7.550781 -25.113281 7.609375 -25.488281 7.609375 -25.84375 C 7.609375 -26.175781 7.554688 -26.453125 7.453125 -26.671875 C 7.347656 -26.898438 7.207031 -27.164062 7.03125 -27.46875 C 6.757812 -27.851562 6.625 -28.171875 6.625 -28.421875 C 6.625 -28.503906 6.648438 -28.664062 6.703125 -28.90625 C 6.828125 -29.300781 7.09375 -29.578125 7.5 -29.734375 C 7.90625 -29.898438 8.523438 -29.984375 9.359375 -29.984375 L 24.453125 -29.984375 C 26.523438 -29.984375 28.332031 -29.664062 29.875 -29.03125 C 31.425781 -28.40625 32.613281 -27.546875 33.4375 -26.453125 C 34.257812 -25.359375 34.671875 -24.117188 34.671875 -22.734375 C 34.671875 -22.109375 34.582031 -21.476562 34.40625 -20.84375 Z M 22.875 -21.296875 C 23.019531 -21.984375 23.09375 -22.507812 23.09375 -22.875 C 23.09375 -24.46875 22.222656 -25.265625 20.484375 -25.265625 L 18.59375 -25.265625 L 16.609375 -17.296875 L 18.515625 -17.296875 C 19.679688 -17.296875 20.601562 -17.578125 21.28125 -18.140625 C 21.957031 -18.710938 22.488281 -19.765625 22.875 -21.296875 Z M 22.875 -21.296875 "/></g></g></g><g fill="#000000" fill-opacity="1"><g transform="translate(115.218106, 193.23173)"><g><path d="M 27.515625 -5.3125 C 27.390625 -4.925781 27.328125 -4.535156 27.328125 -4.140625 C 27.328125 -3.804688 27.375 -3.523438 27.46875 -3.296875 C 27.5625 -3.078125 27.660156 -2.898438 27.765625 -2.765625 C 27.867188 -2.628906 27.9375 -2.535156 27.96875 -2.484375 C 28.269531 -2.179688 28.421875 -1.878906 28.421875 -1.578125 C 28.421875 -1.515625 28.390625 -1.363281 28.328125 -1.125 C 28.203125 -0.707031 27.9375 -0.414062 27.53125 -0.25 C 27.125 -0.0820312 26.503906 0 25.671875 0 L 15 0 C 14.363281 0 13.875 -0.101562 13.53125 -0.3125 C 13.1875 -0.519531 13.015625 -0.804688 13.015625 -1.171875 C 13.015625 -1.347656 13.0625 -1.539062 13.15625 -1.75 C 13.238281 -1.988281 13.363281 -2.175781 13.53125 -2.3125 C 13.695312 -2.445312 13.929688 -2.609375 14.234375 -2.796875 C 14.710938 -3.066406 15.097656 -3.363281 15.390625 -3.6875 C 15.691406 -4.019531 15.953125 -4.5625 16.171875 -5.3125 L 17.34375 -9.1875 L 10.3125 -9.1875 L 9.09375 -6.625 C 8.582031 -5.507812 8.328125 -4.632812 8.328125 -4 C 8.328125 -3.644531 8.382812 -3.351562 8.5 -3.125 C 8.625 -2.90625 8.804688 -2.675781 9.046875 -2.4375 C 9.253906 -2.195312 9.394531 -1.992188 9.46875 -1.828125 C 9.550781 -1.660156 9.5625 -1.441406 9.5 -1.171875 C 9.382812 -0.722656 9.140625 -0.414062 8.765625 -0.25 C 8.390625 -0.0820312 7.796875 0 6.984375 0 L 0.265625 0 C -0.421875 0 -0.941406 -0.125 -1.296875 -0.375 C -1.660156 -0.632812 -1.84375 -0.972656 -1.84375 -1.390625 C -1.84375 -1.867188 -1.671875 -2.25 -1.328125 -2.53125 C -0.984375 -2.820312 -0.46875 -3.132812 0.21875 -3.46875 C 1.125 -3.914062 1.847656 -4.359375 2.390625 -4.796875 C 2.929688 -5.234375 3.394531 -5.84375 3.78125 -6.625 L 11.796875 -23.234375 C 13.023438 -25.816406 14.472656 -27.6875 16.140625 -28.84375 C 17.804688 -30 20.003906 -30.578125 22.734375 -30.578125 C 25.796875 -30.578125 28.164062 -29.953125 29.84375 -28.703125 C 31.53125 -27.460938 32.375 -25.726562 32.375 -23.5 C 32.375 -22.570312 32.222656 -21.613281 31.921875 -20.625 Z M 18.6875 -13.6875 L 21.078125 -21.609375 C 21.191406 -21.972656 21.25 -22.347656 21.25 -22.734375 C 21.25 -23.304688 21.09375 -23.734375 20.78125 -24.015625 C 20.46875 -24.304688 20.023438 -24.453125 19.453125 -24.453125 C 18.734375 -24.453125 18.117188 -24.238281 17.609375 -23.8125 C 17.097656 -23.394531 16.585938 -22.644531 16.078125 -21.5625 L 12.390625 -13.6875 Z M 18.6875 -13.6875 "/></g></g></g><g fill="#000000" fill-opacity="1"><g transform="translate(146.64541, 193.23173)"><g><path d="M 35.078125 -29.984375 C 36.304688 -29.984375 36.921875 -29.59375 36.921875 -28.8125 C 36.921875 -28.601562 36.90625 -28.457031 36.875 -28.375 C 36.789062 -28.070312 36.65625 -27.835938 36.46875 -27.671875 C 36.289062 -27.503906 36.035156 -27.316406 35.703125 -27.109375 C 35.253906 -26.835938 34.878906 -26.535156 34.578125 -26.203125 C 34.285156 -25.878906 34.03125 -25.367188 33.8125 -24.671875 L 28.234375 -4.6875 C 27.722656 -2.882812 27.082031 -1.617188 26.3125 -0.890625 C 25.550781 -0.171875 24.492188 0.1875 23.140625 0.1875 C 21.941406 0.1875 20.941406 -0.164062 20.140625 -0.875 C 19.347656 -1.582031 18.609375 -2.671875 17.921875 -4.140625 L 11.125 -18.46875 L 7.34375 -5.3125 C 7.25 -4.925781 7.203125 -4.582031 7.203125 -4.28125 C 7.203125 -3.882812 7.269531 -3.554688 7.40625 -3.296875 C 7.539062 -3.046875 7.726562 -2.785156 7.96875 -2.515625 C 8.300781 -2.128906 8.46875 -1.800781 8.46875 -1.53125 C 8.46875 -1.351562 8.453125 -1.21875 8.421875 -1.125 C 8.296875 -0.707031 8.023438 -0.414062 7.609375 -0.25 C 7.191406 -0.0820312 6.5625 0 5.71875 0 L 0.8125 0 C -0.414062 0 -1.03125 -0.390625 -1.03125 -1.171875 C -1.03125 -1.378906 -1.015625 -1.53125 -0.984375 -1.625 C -0.898438 -1.925781 -0.765625 -2.15625 -0.578125 -2.3125 C -0.398438 -2.476562 -0.144531 -2.664062 0.1875 -2.875 C 0.632812 -3.144531 1.003906 -3.445312 1.296875 -3.78125 C 1.597656 -4.113281 1.859375 -4.625 2.078125 -5.3125 L 7.796875 -25.53125 L 7.0625 -27.015625 C 6.769531 -27.617188 6.625 -28.144531 6.625 -28.59375 C 6.625 -29.519531 7.222656 -29.984375 8.421875 -29.984375 L 15.078125 -29.984375 C 16.046875 -29.984375 16.773438 -29.765625 17.265625 -29.328125 C 17.765625 -28.898438 18.300781 -28.128906 18.875 -27.015625 L 25.4375 -13.828125 L 28.546875 -24.671875 C 28.640625 -25.097656 28.6875 -25.445312 28.6875 -25.71875 C 28.6875 -26.101562 28.617188 -26.421875 28.484375 -26.671875 C 28.347656 -26.929688 28.160156 -27.195312 27.921875 -27.46875 C 27.585938 -27.851562 27.421875 -28.179688 27.421875 -28.453125 C 27.421875 -28.640625 27.4375 -28.773438 27.46875 -28.859375 C 27.59375 -29.285156 27.863281 -29.578125 28.28125 -29.734375 C 28.695312 -29.898438 29.328125 -29.984375 30.171875 -29.984375 Z M 35.078125 -29.984375 "/></g></g></g><g fill="#000000" fill-opacity="1"><g transform="translate(179.378427, 193.23173)"><g><path d="M 15.671875 0.265625 C 13.148438 0.265625 10.882812 -0.195312 8.875 -1.125 C 6.863281 -2.050781 5.265625 -3.421875 4.078125 -5.234375 C 2.890625 -7.054688 2.296875 -9.257812 2.296875 -11.84375 C 2.296875 -13.644531 2.613281 -15.597656 3.25 -17.703125 C 4.625 -22.203125 6.707031 -25.445312 9.5 -27.4375 C 12.289062 -29.4375 15.28125 -30.4375 18.46875 -30.4375 C 20.175781 -30.4375 21.691406 -30.179688 23.015625 -29.671875 C 24.335938 -29.160156 25.550781 -28.425781 26.65625 -27.46875 L 27.875 -28.421875 C 28.6875 -29.046875 29.367188 -29.476562 29.921875 -29.71875 C 30.472656 -29.957031 31.097656 -30.078125 31.796875 -30.078125 C 32.546875 -30.078125 33.144531 -29.910156 33.59375 -29.578125 C 34.039062 -29.253906 34.265625 -28.773438 34.265625 -28.140625 C 34.265625 -27.816406 34.207031 -27.488281 34.09375 -27.15625 L 31.5625 -20.125 C 31.289062 -19.3125 30.96875 -18.738281 30.59375 -18.40625 C 30.21875 -18.082031 29.65625 -17.921875 28.90625 -17.921875 C 28.125 -17.921875 27.484375 -18.195312 26.984375 -18.75 C 26.492188 -19.3125 25.9375 -20.265625 25.3125 -21.609375 C 24.59375 -23.023438 24.003906 -23.957031 23.546875 -24.40625 C 23.097656 -24.851562 22.4375 -25.078125 21.5625 -25.078125 C 20.332031 -25.078125 19.144531 -24.316406 18 -22.796875 C 16.863281 -21.285156 15.832031 -19.015625 14.90625 -15.984375 C 14.125 -13.429688 13.734375 -11.300781 13.734375 -9.59375 C 13.734375 -8.09375 14.019531 -6.972656 14.59375 -6.234375 C 15.164062 -5.503906 15.929688 -5.140625 16.890625 -5.140625 C 18.296875 -5.140625 19.457031 -5.453125 20.375 -6.078125 C 21.289062 -6.710938 22.226562 -7.566406 23.1875 -8.640625 C 23.789062 -9.304688 24.28125 -9.796875 24.65625 -10.109375 C 25.03125 -10.421875 25.425781 -10.578125 25.84375 -10.578125 C 26.382812 -10.578125 26.953125 -10.304688 27.546875 -9.765625 C 28.148438 -9.234375 28.441406 -8.695312 28.421875 -8.15625 C 28.441406 -7.488281 27.90625 -6.460938 26.8125 -5.078125 C 25.71875 -3.703125 24.203125 -2.46875 22.265625 -1.375 C 20.328125 -0.28125 18.128906 0.265625 15.671875 0.265625 Z M 15.671875 0.265625 "/></g></g></g><g fill="#000000" fill-opacity="1"><g transform="translate(210.535584, 193.23173)"><g><path d="M 20 -29.984375 C 20.625 -29.984375 21.109375 -29.882812 21.453125 -29.6875 C 21.796875 -29.5 21.96875 -29.222656 21.96875 -28.859375 C 21.96875 -28.710938 21.925781 -28.519531 21.84375 -28.28125 C 21.75 -28.070312 21.617188 -27.882812 21.453125 -27.71875 C 21.285156 -27.550781 21.132812 -27.429688 21 -27.359375 C 20.863281 -27.285156 20.769531 -27.21875 20.71875 -27.15625 C 20.238281 -26.882812 19.847656 -26.582031 19.546875 -26.25 C 19.242188 -25.925781 18.988281 -25.414062 18.78125 -24.71875 L 13.328125 -5.3125 C 13.210938 -4.925781 13.15625 -4.550781 13.15625 -4.1875 C 13.15625 -3.820312 13.207031 -3.519531 13.3125 -3.28125 C 13.414062 -3.039062 13.570312 -2.785156 13.78125 -2.515625 C 14.050781 -2.128906 14.1875 -1.816406 14.1875 -1.578125 C 14.1875 -1.515625 14.15625 -1.363281 14.09375 -1.125 C 13.976562 -0.707031 13.707031 -0.414062 13.28125 -0.25 C 12.863281 -0.0820312 12.234375 0 11.390625 0 L 0.8125 0 C 0.175781 0 -0.3125 -0.101562 -0.65625 -0.3125 C -1 -0.519531 -1.171875 -0.804688 -1.171875 -1.171875 C -1.171875 -1.347656 -1.125 -1.539062 -1.03125 -1.75 C -0.914062 -2.082031 -0.722656 -2.335938 -0.453125 -2.515625 C -0.179688 -2.703125 -0.015625 -2.8125 0.046875 -2.84375 C 0.523438 -3.132812 0.914062 -3.4375 1.21875 -3.75 C 1.519531 -4.070312 1.773438 -4.59375 1.984375 -5.3125 L 7.46875 -24.71875 C 7.59375 -25.113281 7.65625 -25.488281 7.65625 -25.84375 C 7.65625 -26.175781 7.601562 -26.453125 7.5 -26.671875 C 7.394531 -26.898438 7.25 -27.164062 7.0625 -27.46875 C 6.800781 -27.851562 6.671875 -28.171875 6.671875 -28.421875 C 6.671875 -28.503906 6.695312 -28.664062 6.75 -28.90625 C 6.875 -29.300781 7.140625 -29.578125 7.546875 -29.734375 C 7.953125 -29.898438 8.570312 -29.984375 9.40625 -29.984375 Z M 20 -29.984375 "/></g></g></g><g fill="#000000" fill-opacity="1"><g transform="translate(228.725595, 193.23173)"><g><path d="M 16.84375 -30.265625 C 18.519531 -30.265625 20.070312 -30.0625 21.5 -29.65625 C 22.925781 -29.25 24.375 -28.609375 25.84375 -27.734375 L 26.890625 -28.59375 C 27.609375 -29.164062 28.195312 -29.554688 28.65625 -29.765625 C 29.125 -29.972656 29.660156 -30.078125 30.265625 -30.078125 C 30.984375 -30.078125 31.550781 -29.921875 31.96875 -29.609375 C 32.394531 -29.296875 32.609375 -28.835938 32.609375 -28.234375 C 32.609375 -27.992188 32.5625 -27.738281 32.46875 -27.46875 L 30.578125 -21.25 C 30.367188 -20.53125 30.101562 -20.019531 29.78125 -19.71875 C 29.46875 -19.414062 29 -19.265625 28.375 -19.265625 C 27.707031 -19.265625 27.125 -19.46875 26.625 -19.875 C 26.132812 -20.28125 25.363281 -21.113281 24.3125 -22.375 C 23.257812 -23.582031 22.304688 -24.429688 21.453125 -24.921875 C 20.597656 -25.421875 19.722656 -25.671875 18.828125 -25.671875 C 18.160156 -25.671875 17.601562 -25.453125 17.15625 -25.015625 C 16.707031 -24.578125 16.484375 -24.046875 16.484375 -23.421875 C 16.484375 -22.691406 16.84375 -22.019531 17.5625 -21.40625 C 18.28125 -20.789062 19.40625 -20.019531 20.9375 -19.09375 C 22.5 -18.164062 23.789062 -17.328125 24.8125 -16.578125 C 25.832031 -15.828125 26.703125 -14.894531 27.421875 -13.78125 C 28.140625 -12.664062 28.5 -11.390625 28.5 -9.953125 C 28.5 -9.023438 28.347656 -8.09375 28.046875 -7.15625 C 27.328125 -4.757812 25.929688 -2.9375 23.859375 -1.6875 C 21.796875 -0.4375 19.378906 0.1875 16.609375 0.1875 C 14.546875 0.1875 12.804688 -0.0507812 11.390625 -0.53125 C 9.984375 -1.019531 8.539062 -1.832031 7.0625 -2.96875 L 5.453125 -1.625 C 4.703125 -0.988281 4.082031 -0.554688 3.59375 -0.328125 C 3.113281 -0.109375 2.578125 0 1.984375 0 C 1.296875 0 0.75 -0.160156 0.34375 -0.484375 C -0.0625 -0.816406 -0.265625 -1.269531 -0.265625 -1.84375 C -0.265625 -2.144531 -0.207031 -2.460938 -0.09375 -2.796875 L 2.109375 -9.5 C 2.359375 -10.28125 2.691406 -10.832031 3.109375 -11.15625 C 3.523438 -11.488281 4.066406 -11.65625 4.734375 -11.65625 C 5.421875 -11.65625 6.039062 -11.414062 6.59375 -10.9375 C 7.15625 -10.457031 7.882812 -9.585938 8.78125 -8.328125 C 9.738281 -6.953125 10.628906 -5.992188 11.453125 -5.453125 C 12.285156 -4.910156 13.269531 -4.640625 14.40625 -4.640625 C 15.21875 -4.640625 15.84375 -4.765625 16.28125 -5.015625 C 16.71875 -5.273438 17.023438 -5.691406 17.203125 -6.265625 C 17.265625 -6.410156 17.296875 -6.632812 17.296875 -6.9375 C 17.296875 -7.65625 16.945312 -8.3125 16.25 -8.90625 C 15.5625 -9.507812 14.5 -10.234375 13.0625 -11.078125 C 11.53125 -12.003906 10.28125 -12.835938 9.3125 -13.578125 C 8.351562 -14.316406 7.519531 -15.238281 6.8125 -16.34375 C 6.113281 -17.457031 5.765625 -18.765625 5.765625 -20.265625 C 5.765625 -21.316406 5.929688 -22.351562 6.265625 -23.375 C 6.890625 -25.445312 8.175781 -27.113281 10.125 -28.375 C 12.082031 -29.632812 14.320312 -30.265625 16.84375 -30.265625 Z M 16.84375 -30.265625 "/></g></g><g transform="translate(259.747678, 193.23173)"><g><path d="M 15.671875 0.265625 C 13.148438 0.265625 10.882812 -0.195312 8.875 -1.125 C 6.863281 -2.050781 5.265625 -3.421875 4.078125 -5.234375 C 2.890625 -7.054688 2.296875 -9.257812 2.296875 -11.84375 C 2.296875 -13.644531 2.613281 -15.597656 3.25 -17.703125 C 4.625 -22.203125 6.707031 -25.445312 9.5 -27.4375 C 12.289062 -29.4375 15.28125 -30.4375 18.46875 -30.4375 C 20.175781 -30.4375 21.691406 -30.179688 23.015625 -29.671875 C 24.335938 -29.160156 25.550781 -28.425781 26.65625 -27.46875 L 27.875 -28.421875 C 28.6875 -29.046875 29.367188 -29.476562 29.921875 -29.71875 C 30.472656 -29.957031 31.097656 -30.078125 31.796875 -30.078125 C 32.546875 -30.078125 33.144531 -29.910156 33.59375 -29.578125 C 34.039062 -29.253906 34.265625 -28.773438 34.265625 -28.140625 C 34.265625 -27.816406 34.207031 -27.488281 34.09375 -27.15625 L 31.5625 -20.125 C 31.289062 -19.3125 30.96875 -18.738281 30.59375 -18.40625 C 30.21875 -18.082031 29.65625 -17.921875 28.90625 -17.921875 C 28.125 -17.921875 27.484375 -18.195312 26.984375 -18.75 C 26.492188 -19.3125 25.9375 -20.265625 25.3125 -21.609375 C 24.59375 -23.023438 24.003906 -23.957031 23.546875 -24.40625 C 23.097656 -24.851562 22.4375 -25.078125 21.5625 -25.078125 C 20.332031 -25.078125 19.144531 -24.316406 18 -22.796875 C 16.863281 -21.285156 15.832031 -19.015625 14.90625 -15.984375 C 14.125 -13.429688 13.734375 -11.300781 13.734375 -9.59375 C 13.734375 -8.09375 14.019531 -6.972656 14.59375 -6.234375 C 15.164062 -5.503906 15.929688 -5.140625 16.890625 -5.140625 C 18.296875 -5.140625 19.457031 -5.453125 20.375 -6.078125 C 21.289062 -6.710938 22.226562 -7.566406 23.1875 -8.640625 C 23.789062 -9.304688 24.28125 -9.796875 24.65625 -10.109375 C 25.03125 -10.421875 25.425781 -10.578125 25.84375 -10.578125 C 26.382812 -10.578125 26.953125 -10.304688 27.546875 -9.765625 C 28.148438 -9.234375 28.441406 -8.695312 28.421875 -8.15625 C 28.441406 -7.488281 27.90625 -6.460938 26.8125 -5.078125 C 25.71875 -3.703125 24.203125 -2.46875 22.265625 -1.375 C 20.328125 -0.28125 18.128906 0.265625 15.671875 0.265625 Z M 15.671875 0.265625 "/></g></g></g><g fill="#000000" fill-opacity="1"><g transform="translate(290.904847, 193.23173)"><g><path d="M 27.515625 -5.3125 C 27.390625 -4.925781 27.328125 -4.535156 27.328125 -4.140625 C 27.328125 -3.804688 27.375 -3.523438 27.46875 -3.296875 C 27.5625 -3.078125 27.660156 -2.898438 27.765625 -2.765625 C 27.867188 -2.628906 27.9375 -2.535156 27.96875 -2.484375 C 28.269531 -2.179688 28.421875 -1.878906 28.421875 -1.578125 C 28.421875 -1.515625 28.390625 -1.363281 28.328125 -1.125 C 28.203125 -0.707031 27.9375 -0.414062 27.53125 -0.25 C 27.125 -0.0820312 26.503906 0 25.671875 0 L 15 0 C 14.363281 0 13.875 -0.101562 13.53125 -0.3125 C 13.1875 -0.519531 13.015625 -0.804688 13.015625 -1.171875 C 13.015625 -1.347656 13.0625 -1.539062 13.15625 -1.75 C 13.238281 -1.988281 13.363281 -2.175781 13.53125 -2.3125 C 13.695312 -2.445312 13.929688 -2.609375 14.234375 -2.796875 C 14.710938 -3.066406 15.097656 -3.363281 15.390625 -3.6875 C 15.691406 -4.019531 15.953125 -4.5625 16.171875 -5.3125 L 17.34375 -9.1875 L 10.3125 -9.1875 L 9.09375 -6.625 C 8.582031 -5.507812 8.328125 -4.632812 8.328125 -4 C 8.328125 -3.644531 8.382812 -3.351562 8.5 -3.125 C 8.625 -2.90625 8.804688 -2.675781 9.046875 -2.4375 C 9.253906 -2.195312 9.394531 -1.992188 9.46875 -1.828125 C 9.550781 -1.660156 9.5625 -1.441406 9.5 -1.171875 C 9.382812 -0.722656 9.140625 -0.414062 8.765625 -0.25 C 8.390625 -0.0820312 7.796875 0 6.984375 0 L 0.265625 0 C -0.421875 0 -0.941406 -0.125 -1.296875 -0.375 C -1.660156 -0.632812 -1.84375 -0.972656 -1.84375 -1.390625 C -1.84375 -1.867188 -1.671875 -2.25 -1.328125 -2.53125 C -0.984375 -2.820312 -0.46875 -3.132812 0.21875 -3.46875 C 1.125 -3.914062 1.847656 -4.359375 2.390625 -4.796875 C 2.929688 -5.234375 3.394531 -5.84375 3.78125 -6.625 L 11.796875 -23.234375 C 13.023438 -25.816406 14.472656 -27.6875 16.140625 -28.84375 C 17.804688 -30 20.003906 -30.578125 22.734375 -30.578125 C 25.796875 -30.578125 28.164062 -29.953125 29.84375 -28.703125 C 31.53125 -27.460938 32.375 -25.726562 32.375 -23.5 C 32.375 -22.570312 32.222656 -21.613281 31.921875 -20.625 Z M 18.6875 -13.6875 L 21.078125 -21.609375 C 21.191406 -21.972656 21.25 -22.347656 21.25 -22.734375 C 21.25 -23.304688 21.09375 -23.734375 20.78125 -24.015625 C 20.46875 -24.304688 20.023438 -24.453125 19.453125 -24.453125 C 18.734375 -24.453125 18.117188 -24.238281 17.609375 -23.8125 C 17.097656 -23.394531 16.585938 -22.644531 16.078125 -21.5625 L 12.390625 -13.6875 Z M 18.6875 -13.6875 "/></g></g></g><path stroke-linecap="butt" transform="matrix(0.558454, 0, 0, 0.558454, 109.828452, 196.986448)" fill="none" stroke-linejoin="miter" d="M 64.232318 6.242611 L 68.492129 6.242611 L 62.189848 17.937854 L 62.189848 23.002062 L 58.356718 23.002062 L 58.356718 17.937854 L 52.033453 6.242611 L 56.321242 6.242611 L 59.063189 12.062253 C 59.266037 12.530902 59.468885 12.999552 59.664738 13.454211 C 59.867587 13.901876 60.04945 14.36353 60.217325 14.839174 C 60.427168 14.36353 60.630016 13.901876 60.825869 13.454211 C 61.028717 12.999552 61.23856 12.530902 61.455398 12.062253 Z M 89.448437 23.002062 L 88.238343 19.574628 L 80.725968 19.574628 L 79.522869 23.002062 L 75.66176 23.002062 L 81.558345 6.242611 L 87.412961 6.242611 L 93.302551 23.002062 Z M 81.761193 16.622838 L 87.203118 16.622838 L 84.482156 8.886631 Z M 100.884873 17.483194 L 104.613082 17.483194 C 104.662045 18.371529 104.983804 19.112974 105.578359 19.700534 C 106.179909 20.288094 107.138191 20.581874 108.467196 20.581874 C 109.747237 20.581874 110.628578 20.379026 111.118211 19.980324 C 111.600849 19.574628 111.845666 19.036032 111.845666 18.364534 C 111.845666 17.15444 111.097227 16.447969 109.600347 16.245121 L 105.900118 15.762483 C 104.417228 15.580619 103.270087 15.083991 102.46569 14.279593 C 101.661292 13.475195 101.255596 12.384012 101.255596 11.006044 C 101.255596 9.495176 101.836161 8.250108 102.983302 7.277836 C 104.137438 6.305564 105.886129 5.815931 108.243364 5.815931 C 109.922106 5.815931 111.27909 6.060747 112.32131 6.550381 C 113.36353 7.033019 114.139948 7.683532 114.650566 8.501919 C 115.168178 9.313312 115.454964 10.215636 115.524911 11.208892 L 111.768724 11.208892 C 111.670797 10.418484 111.335049 9.79595 110.761478 9.327301 C 110.187907 8.865647 109.348536 8.63482 108.243364 8.63482 C 107.215133 8.63482 106.438715 8.830673 105.907113 9.215385 C 105.382506 9.607092 105.116705 10.124704 105.116705 10.775217 C 105.116705 11.26485 105.270589 11.677541 105.578359 12.01329 C 105.886129 12.349039 106.389751 12.558882 107.082233 12.642819 L 110.586609 13.069499 C 113.993058 13.454211 115.69978 15.090986 115.69978 17.986817 C 115.69978 19.078 115.454964 20.036283 114.96533 20.861665 C 114.482692 21.680052 113.706273 22.316575 112.636074 22.76424 C 111.565876 23.211905 110.159928 23.428742 108.411238 23.428742 C 107.040264 23.428742 105.879134 23.267863 104.927846 22.939109 C 103.976558 22.610355 103.214129 22.16269 102.633564 21.603109 C 102.052999 21.036534 101.626318 20.40001 101.346528 19.686544 C 101.066737 18.973079 100.912852 18.238629 100.884873 17.483194 Z M 144.972861 6.242611 L 144.972861 23.002062 L 141.146726 23.002062 L 141.146726 8.760726 L 136.733031 23.002062 L 132.298351 23.002062 L 127.863672 8.683783 L 127.863672 23.002062 L 124.065516 23.002062 L 124.065516 6.242611 L 130.640593 6.242611 L 134.571649 19.22489 L 138.502706 6.242611 Z M 163.767788 9.271343 L 160.669108 9.271343 L 160.669108 19.945351 L 163.767788 19.945351 L 163.767788 23.002062 L 153.737298 23.002062 L 153.737298 19.945351 L 156.835978 19.945351 L 156.835978 9.271343 L 153.737298 9.271343 L 153.737298 6.242611 L 163.767788 6.242611 Z M 185.101813 6.242611 L 188.781058 6.242611 L 188.781058 23.002062 L 182.436809 23.002062 L 177.190737 11.55863 C 177.008873 11.124955 176.834004 10.69128 176.673124 10.264599 C 176.512245 9.830924 176.37235 9.411238 176.239449 8.991553 L 176.239449 23.002062 L 172.560204 23.002062 L 172.560204 6.242611 L 178.911448 6.242611 L 184.199489 17.853917 C 184.353373 18.21065 184.507258 18.595361 184.668138 19.008052 C 184.829017 19.420743 184.968913 19.840429 185.101813 20.281099 Z M 185.101813 6.242611 " stroke="#ffffff" stroke-width="2.174354" stroke-opacity="1" stroke-miterlimit="4"/><g fill="#000000" fill-opacity="1"><g transform="translate(138.562633, 209.83088)"><g><path d="M 7.140625 -9.359375 L 9.515625 -9.359375 L 6 -2.828125 L 6 0 L 3.859375 0 L 3.859375 -2.828125 L 0.328125 -9.359375 L 2.71875 -9.359375 L 4.25 -6.109375 C 4.363281 -5.847656 4.476562 -5.585938 4.59375 -5.328125 C 4.707031 -5.078125 4.8125 -4.820312 4.90625 -4.5625 C 5.007812 -4.820312 5.117188 -5.078125 5.234375 -5.328125 C 5.347656 -5.585938 5.46875 -5.847656 5.59375 -6.109375 Z M 7.140625 -9.359375 "/></g></g></g><g fill="#000000" fill-opacity="1"><g transform="translate(151.661038, 209.83088)"><g><path d="M 8.125 0 L 7.453125 -1.921875 L 3.25 -1.921875 L 2.578125 0 L 0.421875 0 L 3.71875 -9.359375 L 6.984375 -9.359375 L 10.28125 0 Z M 3.828125 -3.5625 L 6.875 -3.5625 L 5.34375 -7.890625 Z M 3.828125 -3.5625 "/></g></g></g><g fill="#000000" fill-opacity="1"><g transform="translate(165.617472, 209.83088)"><g><path d="M 0.546875 -3.078125 L 2.625 -3.078125 C 2.65625 -2.585938 2.835938 -2.175781 3.171875 -1.84375 C 3.503906 -1.507812 4.039062 -1.34375 4.78125 -1.34375 C 5.5 -1.34375 5.992188 -1.457031 6.265625 -1.6875 C 6.535156 -1.914062 6.671875 -2.21875 6.671875 -2.59375 C 6.671875 -3.269531 6.253906 -3.660156 5.421875 -3.765625 L 3.34375 -4.046875 C 2.519531 -4.140625 1.882812 -4.410156 1.4375 -4.859375 C 0.988281 -5.316406 0.765625 -5.929688 0.765625 -6.703125 C 0.765625 -7.546875 1.082031 -8.238281 1.71875 -8.78125 C 2.363281 -9.320312 3.34375 -9.59375 4.65625 -9.59375 C 5.59375 -9.59375 6.351562 -9.457031 6.9375 -9.1875 C 7.519531 -8.914062 7.953125 -8.550781 8.234375 -8.09375 C 8.523438 -7.644531 8.691406 -7.144531 8.734375 -6.59375 L 6.625 -6.59375 C 6.570312 -7.03125 6.382812 -7.378906 6.0625 -7.640625 C 5.75 -7.898438 5.28125 -8.03125 4.65625 -8.03125 C 4.082031 -8.03125 3.648438 -7.921875 3.359375 -7.703125 C 3.066406 -7.484375 2.921875 -7.191406 2.921875 -6.828125 C 2.921875 -6.554688 3.003906 -6.328125 3.171875 -6.140625 C 3.347656 -5.953125 3.628906 -5.832031 4.015625 -5.78125 L 5.96875 -5.546875 C 7.875 -5.328125 8.828125 -4.410156 8.828125 -2.796875 C 8.828125 -2.191406 8.691406 -1.65625 8.421875 -1.1875 C 8.148438 -0.726562 7.710938 -0.375 7.109375 -0.125 C 6.515625 0.113281 5.734375 0.234375 4.765625 0.234375 C 3.992188 0.234375 3.34375 0.144531 2.8125 -0.03125 C 2.28125 -0.21875 1.851562 -0.46875 1.53125 -0.78125 C 1.207031 -1.09375 0.96875 -1.445312 0.8125 -1.84375 C 0.65625 -2.25 0.566406 -2.660156 0.546875 -3.078125 Z M 0.546875 -3.078125 "/></g></g></g><g fill="#000000" fill-opacity="1"><g transform="translate(178.293891, 209.83088)"><g><path d="M 12.5 -9.359375 L 12.5 0 L 10.359375 0 L 10.359375 -7.953125 L 7.890625 0 L 5.421875 0 L 2.9375 -8 L 2.9375 0 L 0.8125 0 L 0.8125 -9.359375 L 4.484375 -9.359375 L 6.6875 -2.109375 L 8.890625 -9.359375 Z M 12.5 -9.359375 "/></g></g></g><g fill="#000000" fill-opacity="1"><g transform="translate(194.866611, 209.83088)"><g><path d="M 6.421875 -7.671875 L 4.6875 -7.671875 L 4.6875 -1.703125 L 6.421875 -1.703125 L 6.421875 0 L 0.8125 0 L 0.8125 -1.703125 L 2.546875 -1.703125 L 2.546875 -7.671875 L 0.8125 -7.671875 L 0.8125 -9.359375 L 6.421875 -9.359375 Z M 6.421875 -7.671875 "/></g></g></g><g fill="#000000" fill-opacity="1"><g transform="translate(205.37686, 209.83088)"><g><path d="M 7.828125 -9.359375 L 9.890625 -9.359375 L 9.890625 0 L 6.328125 0 L 3.40625 -6.390625 C 3.300781 -6.628906 3.203125 -6.867188 3.109375 -7.109375 C 3.023438 -7.347656 2.945312 -7.585938 2.875 -7.828125 L 2.875 0 L 0.8125 0 L 0.8125 -9.359375 L 4.359375 -9.359375 L 7.328125 -2.875 C 7.410156 -2.675781 7.492188 -2.460938 7.578125 -2.234375 C 7.671875 -2.003906 7.753906 -1.765625 7.828125 -1.515625 Z M 7.828125 -9.359375 "/></g></g></g><g clip-path="url(#7e6fe4c0a0)"><path fill="#ffffff" d="M 161.257812 179.449219 L 180.578125 164.671875 L 158.328125 169.964844 L 154.597656 157.90625 L 146.882812 172.6875 L 127.425781 177.320312 L 141.886719 182.265625 L 131.453125 202.25 L 152.730469 185.972656 L 164.519531 190.003906 Z M 161.257812 179.449219 " fill-opacity="1" fill-rule="nonzero"/></g><g clip-path="url(#ad7bbe5a1c)"><path fill="#000000" d="M 159.554688 179.597656 L 174.339844 168.285156 L 157.308594 172.339844 L 154.457031 163.109375 L 148.550781 174.421875 L 133.652344 177.964844 L 144.722656 181.753906 L 136.738281 197.050781 L 153.027344 184.59375 L 162.050781 187.679688 Z M 159.554688 179.597656 " fill-opacity="1" fill-rule="nonzero"/></g></svg>